<?xml version="1.0" encoding="UTF-8"?>
<svg width="50px" height="12px" viewBox="0 0 50 12" version="1.1" xmlns="http://www.w3.org/2000/svg" xmlns:xlink="http://www.w3.org/1999/xlink">
    <!-- Generator: Sketch 50 (54983) - http://www.bohemiancoding.com/sketch -->
    <title>Fill 1</title>
    <desc>Created with Sketch.</desc>
    <defs></defs>
    <g id="Page-1" stroke="none" stroke-width="1" fill="none" fill-rule="evenodd">
        <g id="Home-Step-3-Selected" transform="translate(-699.000000, -709.000000)" fill="#FF3366">
            <path d="M742.445,716.925 C741.203,716.925 740.195,715.918 740.195,714.675 C740.195,713.432 741.203,712.425 742.445,712.425 C743.687,712.425 744.695,713.432 744.695,714.675 C744.695,715.918 743.687,716.925 742.445,716.925 Z M736.097,709 L736.097,712 L735.097,712 L735.097,709 L728.097,709 L728.097,713 L727.097,713 L727.097,709 L720.097,709 L720.097,712 L719.097,712 L719.097,709 L712.097,709 L712.097,713 L711.097,713 L711.097,709 L704.097,709 L704.097,712 L703.097,712 L703.097,709 L699,709 L699,720.35 L749,720.35 L749,709 L736.097,709 Z" id="Fill-1"></path>
        </g>
    </g>
</svg>