<?xml version="1.0" encoding="utf-8"?>
<!-- Generator: Adobe Illustrator 22.1.0, SVG Export Plug-In . SVG Version: 6.00 Build 0)  -->
<svg version="1.1" id="Layer_1" xmlns="http://www.w3.org/2000/svg" xmlns:xlink="http://www.w3.org/1999/xlink" x="0px" y="0px"
	 viewBox="0 0 388 671" style="enable-background:new 0 0 388 671;" xml:space="preserve">
<style type="text/css">
	.st0{fill:#FCFAEE;}
	.st1{fill:none;stroke:#4A4A4A;stroke-width:5;stroke-linecap:round;stroke-dasharray:15,20;}
	.st2{fill:none;stroke:#4A4A4A;stroke-width:5;stroke-linecap:round;stroke-dasharray:15,30;}
	.st3{fill:#FF3366;}
	.st4{fill:#01BAEF;}
	.st5{fill:#44AF69;}
	.st6{enable-background:new    ;}
</style>
<title>Group</title>
<desc>Created with Sketch.</desc>
<g id="Page-1">
	<g id="Home-Step-1" transform="translate(-81.000000, -300.000000)">
		<g id="Group" transform="translate(81.000000, 300.000000)">
			<rect id="Rectangle-2" class="st0" width="388" height="671"/>
			<path id="Stroke-1" class="st1" d="M327.4,564.5c-17.6,30.7-77.8,61.1-146,68"/>
			<path id="Stroke-3" class="st1" d="M179.4,381.5c25.4,14.6,52.3,26.4,79.4,37.4c25.9,10.5,55.3,18.3,79.5,32.5
				c7.6,4.4,14.6,10.5,18.7,18.4c9.6,18.2,1.9,39.6-6.3,56.8"/>
			<path id="Stroke-5" class="st1" d="M141.4,208.5c-48.2,18.1-91.8,77.9-1.4,146"/>
			<path id="Stroke-7" class="st2" d="M64.4,36.5c152.1,9.2,224.7,34.2,233.6,72.4c12.7,54.6-65.6,72-114.1,85.6"/>
			<path id="Fill-9" class="st3" d="M173,200c0,6.6-5.4,12-12,12s-12-5.4-12-12s5.4-12,12-12S173,193.4,173,200"/>
			<path id="Fill-9-Copy" d="M56,37c0,6.6-5.4,12-12,12s-12-5.4-12-12s5.4-12,12-12S56,30.4,56,37"/>
			<path id="Fill-11" class="st4" d="M169.4,369.5c0,6.6-5.4,12-12,12c-6.6,0-12-5.4-12-12s5.4-12,12-12
				C164,357.5,169.4,362.9,169.4,369.5"/>
			<path id="Fill-13" class="st5" d="M351.4,545.5c0,6.6-5.4,12-12,12c-6.6,0-12-5.4-12-12s5.4-12,12-12
				C346,533.5,351.4,538.9,351.4,545.5"/>
			<path id="Fill-13_1_" d="M183,633c0,6.6-5.4,12-12,12s-12-5.4-12-12s5.4-12,12-12S183,626.4,183,633"/>
			<g class="st6">
				<path d="M183.5,232.5c-0.6,0.6-1.3,1.1-2,1.5c-0.7,0.4-1.4,0.7-2.2,0.9c-0.8,0.2-1.6,0.3-2.4,0.3c-1.3,0-2.5-0.3-3.6-0.9
					s-2-1.4-2.6-2.5s-1-2.3-1-3.6c0-1,0.2-2,0.6-2.8s0.9-1.6,1.6-2.2s1.4-1.1,2.3-1.4s1.8-0.5,2.9-0.5c0.9,0,1.7,0.1,2.4,0.3
					s1.4,0.5,2.1,0.8s1.3,0.9,1.9,1.5l-0.8,0.9c-0.5-0.5-1-0.9-1.6-1.3s-1.2-0.6-1.8-0.7s-1.3-0.2-2.1-0.2c-0.8,0-1.7,0.1-2.4,0.4
					s-1.4,0.7-2,1.2c-0.6,0.5-1,1.1-1.3,1.8c-0.3,0.7-0.5,1.5-0.5,2.4c0,1.1,0.3,2.1,0.8,3s1.3,1.6,2.2,2.1s2,0.7,3,0.7
					c2,0,3.9-0.8,5.6-2.4L183.5,232.5z"/>
				<path d="M196.5,235h-1.2v-4.2h-6.4v4.2h-1.2v-9.3h1.2v3.9h6.4v-3.9h1.2V235z"/>
				<path d="M212,230.4c0,0.8-0.2,1.5-0.5,2.1s-0.7,1.1-1.3,1.6c-0.5,0.4-1.2,0.7-1.8,0.9c-0.7,0.2-1.4,0.3-2.1,0.3
					c-0.8,0-1.5-0.1-2.1-0.3c-0.7-0.2-1.3-0.6-1.8-1s-1-1-1.3-1.6s-0.5-1.3-0.5-2.1c0-1,0.3-1.8,0.8-2.6s1.2-1.3,2.1-1.7
					c0.9-0.4,1.8-0.6,2.7-0.6c1,0,1.9,0.2,2.8,0.6s1.6,1,2.1,1.8S212,229.4,212,230.4z M210.8,230.4c0-0.8-0.2-1.5-0.6-2.1
					s-1-1-1.7-1.3c-0.7-0.3-1.4-0.4-2.2-0.4c-0.8,0-1.5,0.1-2.1,0.4c-0.7,0.3-1.2,0.7-1.7,1.3c-0.4,0.6-0.6,1.2-0.6,2
					c0,1.2,0.4,2.1,1.3,2.8s2,1,3.2,1c0.8,0,1.5-0.1,2.2-0.4s1.2-0.7,1.7-1.3C210.6,231.9,210.8,231.2,210.8,230.4z"/>
				<path d="M223,235h-7.3v-9.3h1.2v8.1h6.1V235z"/>
				<path d="M235.5,231.4c0,0.9-0.2,1.6-0.6,2.2c-0.4,0.6-0.9,1-1.6,1.3s-1.5,0.4-2.3,0.4c-1.4,0-2.5-0.3-3.3-0.9s-1.2-1.6-1.2-2.9
					v-5.7h1.2v5.7c0,0.7,0.1,1.2,0.4,1.6s0.7,0.7,1.2,0.8s1.1,0.2,1.7,0.2s1.2-0.1,1.7-0.2s0.9-0.4,1.1-0.8c0.3-0.4,0.4-0.9,0.4-1.6
					v-5.7h1.2V231.4z"/>
				<path d="M247.6,235h-7.3v-9.3h1.2v8.1h6.1V235z"/>
				<path d="M260.5,235h-1.3l-1.3-2.3h-6.4l-1.3,2.3h-1.3l5.3-9.3h1.1L260.5,235z M257.2,231.5l-2.5-4.5l-2.5,4.5H257.2z"/>
			</g>
			<g class="st6">
				<path d="M28.5,71h-1.2V57.6h1.2V71z"/>
				<path d="M42.8,71h-1.2l-6.5-7.5V71h-1.2v-9.3h1.2l6.5,7.4v-7.4h1.2V71z"/>
				<path d="M49.5,71h-1.2v-9.3h1.2V71z"/>
				<path d="M64.2,63.2l-0.7,1c-0.4-0.3-0.8-0.6-1.3-0.9s-0.9-0.4-1.4-0.5c-0.5-0.1-1-0.2-1.5-0.2c-0.6,0-1.1,0.1-1.6,0.2
					s-1,0.4-1.4,0.7s-0.7,0.7-1,1.2s-0.4,1-0.4,1.6c0,1.2,0.5,2.1,1.4,2.8s2,0.9,3.3,0.9c0.5,0,1,0,1.5-0.1c0.4-0.1,0.9-0.2,1.3-0.4
					s0.8-0.4,1.3-0.8l0.5,1.1c-0.6,0.5-1.3,0.8-2.1,1.1c-0.8,0.2-1.6,0.4-2.4,0.4c-1,0-2-0.2-2.9-0.6c-0.9-0.4-1.6-1-2.2-1.7
					s-0.8-1.6-0.8-2.7c0-1,0.3-1.9,0.8-2.6s1.2-1.3,2-1.7c0.8-0.4,1.8-0.6,2.7-0.6C61.1,61.4,62.8,62,64.2,63.2z"/>
				<path d="M69.5,71h-1.2v-9.3h1.2V71z"/>
				<path d="M85,66.4c0,0.8-0.2,1.5-0.5,2.1s-0.7,1.1-1.3,1.6c-0.5,0.4-1.2,0.7-1.8,0.9c-0.7,0.2-1.4,0.3-2.1,0.3
					c-0.8,0-1.5-0.1-2.1-0.3c-0.7-0.2-1.3-0.6-1.8-1s-1-1-1.3-1.6s-0.5-1.3-0.5-2.1c0-1,0.3-1.8,0.8-2.6s1.2-1.3,2.1-1.7
					c0.9-0.4,1.8-0.6,2.7-0.6c1,0,1.9,0.2,2.8,0.6s1.6,1,2.1,1.8S85,65.4,85,66.4z M83.8,66.4c0-0.8-0.2-1.5-0.6-2.1s-1-1-1.7-1.3
					c-0.7-0.3-1.4-0.4-2.2-0.4c-0.8,0-1.5,0.1-2.1,0.4c-0.7,0.3-1.2,0.7-1.7,1.3c-0.4,0.6-0.6,1.2-0.6,2c0,1.2,0.4,2.1,1.3,2.8
					s2,1,3.2,1c0.8,0,1.5-0.1,2.2-0.4s1.2-0.7,1.7-1.3C83.6,67.9,83.8,67.2,83.8,66.4z"/>
			</g>
			<g class="st6">
				<path d="M195.3,358.8c0,1-0.2,1.9-0.5,2.8s-0.9,1.6-1.6,2.2c-0.7,0.6-1.4,1.1-2.3,1.5s-1.8,0.5-2.8,0.5c-1.3,0-2.5-0.3-3.6-0.9
					s-2-1.4-2.6-2.5s-1-2.3-1-3.6c0-1,0.2-1.9,0.6-2.8c0.4-0.9,0.9-1.6,1.6-2.2s1.4-1.1,2.3-1.5c0.9-0.3,1.8-0.5,2.7-0.5
					c1.3,0,2.5,0.3,3.7,0.9s2,1.4,2.6,2.5S195.3,357.5,195.3,358.8z M194.1,358.8c0-0.8-0.2-1.6-0.5-2.3c-0.3-0.7-0.7-1.3-1.3-1.9
					s-1.2-0.9-1.9-1.2c-0.7-0.3-1.5-0.4-2.3-0.4c-1.1,0-2.1,0.2-3,0.7s-1.7,1.2-2.2,2c-0.6,0.9-0.8,1.8-0.8,2.9c0,1.1,0.3,2.1,0.8,3
					s1.3,1.6,2.2,2.1s1.9,0.7,3,0.7c0.8,0,1.6-0.1,2.3-0.4s1.4-0.7,1.9-1.2c0.6-0.5,1-1.1,1.3-1.8S194.1,359.7,194.1,358.8z"/>
				<path d="M208.6,365.5h-1.5l-2.7-3.8h-4.1v3.8h-1.2v-9.3h5.8c0.6,0,1.2,0.1,1.7,0.3s1,0.5,1.3,0.9s0.5,0.9,0.5,1.6
					c0,0.7-0.2,1.3-0.7,1.8s-1.1,0.8-1.8,0.9L208.6,365.5z M207.2,359c0-1-0.8-1.5-2.3-1.5h-4.6v3.1h4.6
					C206.4,360.5,207.2,360,207.2,359z"/>
				<path d="M214.1,365.5h-1.2v-9.3h1.2V365.5z"/>
				<path d="M226.1,365.5h-8.2l-0.7-1.1l7-6.9h-6.5v-1.2h7.7l0.7,1.1l-7,7h7.1V365.5z"/>
				<path d="M238.4,365.5h-1.3l-1.3-2.3h-6.4l-1.3,2.3h-1.3l5.3-9.3h1.1L238.4,365.5z M235.1,362l-2.5-4.5l-2.5,4.5H235.1z"/>
				<path d="M250.1,362.7c0,1-0.3,1.7-0.9,2.1s-1.4,0.7-2.4,0.7h-6v-9.3h6c0.9,0,1.6,0.2,2.1,0.6c0.5,0.4,0.8,1,0.8,1.9
					c0,0.3-0.1,0.7-0.2,0.9s-0.3,0.6-0.6,0.8c0.4,0.3,0.7,0.7,0.9,1C250,361.8,250.1,362.2,250.1,362.7z M248.5,358.7
					c0-0.5-0.1-0.8-0.4-1c-0.3-0.2-0.7-0.3-1.2-0.3H242v2.5h4.8c0.5,0,0.9-0.1,1.2-0.3S248.5,359.2,248.5,358.7z M248.9,362.8
					c0-1.1-0.7-1.6-2.1-1.6H242v3h4.8c0.7,0,1.2-0.1,1.6-0.3S248.9,363.4,248.9,362.8z"/>
				<path d="M264.1,365.5h-1.3l-1.3-2.3h-6.4l-1.3,2.3h-1.3l5.3-9.3h1.1L264.1,365.5z M260.8,362l-2.5-4.5l-2.5,4.5H260.8z"/>
			</g>
			<g class="st6">
				<path d="M217.8,535.5c0,0.6-0.1,1.2-0.4,1.8c-0.3,0.6-0.6,1-1.1,1.4c-0.6,0.4-1.6,0.7-3,0.7h-5.9v5.7h-1.2v-13.4h7.8
					c0.6,0,1.1,0.1,1.5,0.2c0.4,0.1,0.8,0.3,1.2,0.7c0.4,0.4,0.7,0.8,0.9,1.3C217.7,534.3,217.8,534.9,217.8,535.5z M216.6,535.4
					c0-1.7-0.9-2.6-2.7-2.6h-6.5v5.2h5.9c0.4,0,0.8,0,1,0c0.3,0,0.5-0.1,0.7-0.1c0.2-0.1,0.4-0.1,0.5-0.2c0.3-0.2,0.6-0.5,0.8-0.9
					S216.6,535.9,216.6,535.4z"/>
				<path d="M231.5,545h-1.3l-1.3-2.3h-6.4l-1.3,2.3h-1.3l5.3-9.3h1.1L231.5,545z M228.2,541.5l-2.5-4.5l-2.5,4.5H228.2z"/>
				<path d="M241.3,545h-7.3v-9.3h1.2v8.1h6.1V545z"/>
				<path d="M252.7,545h-8.4v-9.3h8.2v1.2h-7v2.7h4v1.2h-4v2.9h7.2V545z"/>
				<path d="M266.2,545H265l-6.5-7.5v7.5h-1.2v-9.3h1.2l6.5,7.4v-7.4h1.2V545z"/>
				<path d="M281.8,540.4c0,0.9-0.2,1.7-0.6,2.4s-1,1.2-1.8,1.7l1.1,1.1l-1.2,0.5l-1.1-1.1c-0.8,0.2-1.5,0.3-2.1,0.3
					c-1,0-1.9-0.2-2.8-0.6c-0.9-0.4-1.6-1-2.1-1.7c-0.5-0.8-0.8-1.6-0.8-2.7c0-1,0.3-1.9,0.8-2.6c0.5-0.8,1.2-1.3,2.1-1.7
					s1.8-0.6,2.8-0.6c1,0,2,0.2,2.8,0.6c0.9,0.4,1.6,1,2.1,1.8C281.6,538.5,281.8,539.4,281.8,540.4z M280.6,540.4
					c0-0.8-0.2-1.5-0.6-2c-0.4-0.6-1-1-1.7-1.3c-0.7-0.3-1.4-0.4-2.2-0.4c-0.6,0-1.1,0.1-1.7,0.2c-0.5,0.2-1,0.4-1.4,0.7
					s-0.7,0.7-1,1.2s-0.4,1-0.4,1.6c0,0.8,0.2,1.5,0.7,2.1c0.4,0.6,1,1,1.7,1.3c0.7,0.3,1.5,0.4,2.2,0.4c0.4,0,0.7,0,0.9-0.1
					l-0.8-0.9l1.2-0.5l1,1C279.9,542.8,280.6,541.7,280.6,540.4z"/>
				<path d="M295.2,541.4c0,0.9-0.2,1.6-0.6,2.2c-0.4,0.6-0.9,1-1.6,1.3s-1.5,0.4-2.3,0.4c-1.4,0-2.5-0.3-3.3-0.9
					c-0.8-0.6-1.2-1.6-1.2-2.9v-5.7h1.2v5.7c0,0.7,0.1,1.2,0.4,1.6s0.7,0.7,1.2,0.8s1.1,0.2,1.7,0.2s1.2-0.1,1.7-0.2
					c0.5-0.2,0.9-0.4,1.1-0.8c0.3-0.4,0.4-0.9,0.4-1.6v-5.7h1.2V541.4z"/>
				<path d="M308.4,545H300v-9.3h8.2v1.2h-7v2.7h4v1.2h-4v2.9h7.2V545z"/>
			</g>
			<g class="st6">
				<path d="M164.9,598.8h-9.8v4.9h6.2v1.2h-6.2v6.1h-1.2v-13.4h11V598.8z"/>
				<path d="M169.5,611h-1.2v-9.3h1.2V611z"/>
				<path d="M183.8,611h-1.2l-6.5-7.5v7.5h-1.2v-9.3h1.2l6.5,7.4v-7.4h1.2V611z"/>
			</g>
		</g>
	</g>
</g>
</svg>
