<?xml version="1.0" encoding="UTF-8"?>
<svg width="40px" height="50px" viewBox="0 0 40 50" version="1.1" xmlns="http://www.w3.org/2000/svg" xmlns:xlink="http://www.w3.org/1999/xlink">
    <!-- Generator: Sketch 50 (54983) - http://www.bohemiancoding.com/sketch -->
    <title>Group 7</title>
    <desc>Created with Sketch.</desc>
    <defs>
        <polygon id="path-1" points="0.8504 0 38.6636654 0 38.6636654 46.7155 0.8504 46.7155"></polygon>
    </defs>
    <g id="Page-1" stroke="none" stroke-width="1" fill="none" fill-rule="evenodd">
        <g id="Home-Step-3-Selected" transform="translate(-554.000000, -670.000000)">
            <g id="Group-7" transform="translate(554.000000, 670.000000)">
                <polygon id="Fill-1" fill="#FFFFFF" points="0 50 31 50 31 47 0 47"></polygon>
                <g id="Group-6" transform="translate(1.000000, 0.000000)">
                    <mask id="mask-2" fill="white">
                        <use xlink:href="#path-1"></use>
                    </mask>
                    <g id="Clip-3"></g>
                    <path d="M26.8174,17.5327842 C26.8174,17.804557 26.5934,18.0251262 26.3174,18.0251262 L3.0464,18.0251262 C2.7704,18.0251262 2.5464,17.804557 2.5464,17.5327842 L2.5464,2.16186617 C2.5464,1.89009337 2.7704,1.66952415 3.0464,1.66952415 L26.3174,1.66952415 C26.5934,1.66952415 26.8174,1.89009337 26.8174,2.16186617 L26.8174,17.5327842 Z M37.7684,11.9683346 C36.6674,10.2490763 35.0374,8.88036543 33.6034,7.44469609 C32.6964,6.5368174 31.7894,5.6289387 30.8694,4.70825912 C30.3704,4.20803962 29.5574,4.19326936 29.0404,4.67281049 C28.5014,5.17204531 28.4894,6.01099611 29.0134,6.52500119 L31.9854,9.43474255 C32.2324,9.67599014 32.3714,10.0048746 32.3714,10.3485293 C32.3714,11.3460143 32.1444,12.3730398 32.2904,13.3675706 C32.4314,14.3256682 32.9504,15.1931749 33.5184,15.9651672 C34.2214,16.9222801 34.9954,17.7307057 36.0964,18.2132008 C36.2964,18.299853 36.4814,18.3776431 36.6614,18.4377088 L36.6614,30.9619052 C36.6344,32.6654086 36.6374,34.368912 36.6404,36.0724154 C36.6414,37.2146489 36.6434,38.3578671 36.6364,39.50207 C36.6304,40.6423341 36.4984,41.5236263 36.2214,42.2729709 C35.9864,42.9080921 35.5284,43.6653141 34.6814,43.6653141 C33.8344,43.6653141 33.3774,42.9090768 33.1424,42.2729709 C32.8654,41.5236263 32.7334,40.6423341 32.7264,39.5010853 C32.7194,38.3618058 32.7214,37.2235111 32.7234,36.0842316 C32.7264,34.3767895 32.7294,32.6693474 32.7024,30.9619052 C32.6934,30.4065434 32.6934,29.8472429 32.6934,29.2869576 C32.6934,27.3619003 32.6934,25.3728386 32.3464,23.4251335 C32.2134,22.6718502 31.9544,21.7324616 31.1374,21.1524827 C30.3854,20.6177993 29.5334,20.6453704 28.9084,20.6650641 C28.7764,20.6699875 28.6464,20.6739263 28.5184,20.6719569 L28.5124,21.1436206 L28.5124,1.9688681 C28.5124,0.881776907 27.6174,-0.0005 26.5124,-0.0005 L2.8504,-0.0005 C1.7474,-0.0005 0.8504,0.881776907 0.8504,1.9688681 L0.8504,46 L28.5124,46 L28.5124,22.6403403 C28.6674,22.6403403 28.8194,22.638371 28.9734,22.6334475 C29.4004,22.6186773 29.7674,22.6078457 29.9674,22.7496403 C30.2284,22.9347609 30.3394,23.5590505 30.3764,23.7648495 C30.6934,25.5441736 30.6934,27.4465832 30.6934,29.2869576 C30.6934,29.8580744 30.6934,30.4262371 30.7024,30.9914457 C30.7294,32.689041 30.7264,34.384667 30.7234,36.0812776 C30.7214,37.2254804 30.7194,38.3686986 30.7264,39.5119168 C30.7344,40.8875204 30.9054,41.9785503 31.2634,42.9464948 C31.8934,44.6549216 33.1394,45.6346822 34.6814,45.6346822 C36.2224,45.6346822 37.4684,44.6549216 38.1004,42.9464948 C38.4594,41.9775657 38.6294,40.8865357 38.6364,39.5129015 C38.6434,38.3647599 38.6414,37.2166183 38.6404,36.0684767 C38.6374,34.3767895 38.6344,32.6841176 38.6614,30.9766755 L38.6614,15.8351889 C38.6714,13.008161 38.6874,13.4010499 37.7684,11.9683346 Z" id="Fill-2" fill="#FFFFFF" mask="url(#mask-2)"></path>
                </g>
            </g>
        </g>
    </g>
</svg>