<?xml version="1.0" encoding="UTF-8"?>
<svg width="50px" height="12px" viewBox="0 0 50 12" version="1.1" xmlns="http://www.w3.org/2000/svg" xmlns:xlink="http://www.w3.org/1999/xlink">
    <!-- Generator: Sketch 50 (54983) - http://www.bohemiancoding.com/sketch -->
    <title>Fill 1</title>
    <desc>Created with Sketch.</desc>
    <defs></defs>
    <g id="Page-1" stroke="none" stroke-width="1" fill="none" fill-rule="evenodd">
        <g id="Home-Step-3-Selected" transform="translate(-591.000000, -673.000000)" fill="#FFFFFF">
            <path d="M634.445,680.925 C633.203,680.925 632.195,679.918 632.195,678.675 C632.195,677.432 633.203,676.425 634.445,676.425 C635.687,676.425 636.695,677.432 636.695,678.675 C636.695,679.918 635.687,680.925 634.445,680.925 Z M628.097,673 L628.097,676 L627.097,676 L627.097,673 L620.097,673 L620.097,677 L619.097,677 L619.097,673 L612.097,673 L612.097,676 L611.097,676 L611.097,673 L604.097,673 L604.097,677 L603.097,677 L603.097,673 L596.097,673 L596.097,676 L595.097,676 L595.097,673 L591,673 L591,684.35 L641,684.35 L641,673 L628.097,673 Z" id="Fill-1"></path>
        </g>
    </g>
</svg>