<?xml version="1.0" encoding="UTF-8"?>
<svg width="50px" height="50px" viewBox="0 0 50 50" version="1.1" xmlns="http://www.w3.org/2000/svg" xmlns:xlink="http://www.w3.org/1999/xlink">
    <!-- Generator: Sketch 50 (54983) - http://www.bohemiancoding.com/sketch -->
    <title>Group 5</title>
    <desc>Created with Sketch.</desc>
    <defs>
        <polygon id="path-1" points="0 0 49.9999 0 49.9999 49.9999 0 49.9999"></polygon>
    </defs>
    <g id="Page-1" stroke="none" stroke-width="1" fill="none" fill-rule="evenodd">
        <g id="Home-Step-3-Selected" transform="translate(-574.000000, -690.000000)">
            <g id="Group-5" transform="translate(574.000000, 690.000000)">
                <g id="Group-3">
                    <mask id="mask-2" fill="white">
                        <use xlink:href="#path-1"></use>
                    </mask>
                    <g id="Clip-2"></g>
                    <path d="M25,0 C11.193,0 0,11.193 0,25 C0,38.807 11.193,50 25,50 C38.807,50 50,38.807 50,25 C50,11.193 38.807,0 25,0 M25,3 C37.131,3 47,12.869 47,25 C47,37.131 37.131,47 25,47 C12.869,47 3,37.131 3,25 C3,12.869 12.869,3 25,3" id="Fill-1" fill="#FFFFFF" mask="url(#mask-2)"></path>
                </g>
                <path d="M33.9999,28.4999 L24.0419,28.4999 C23.2149,28.4999 22.5439,27.8309 22.5419,27.0039 L22.4999,12.0039 C22.4979,11.1759 23.1669,10.5019 23.9959,10.4999 L23.9999,10.4999 C24.8259,10.4999 25.4979,11.1689 25.4999,11.9959 L25.5379,25.4999 L33.9999,25.4999 C34.8279,25.4999 35.4999,26.1709 35.4999,26.9999 C35.4999,27.8289 34.8279,28.4999 33.9999,28.4999" id="Fill-4" fill="#FFFFFF"></path>
            </g>
        </g>
    </g>
</svg>